{
  "source": "C:\\Users\\Peter\\Desktop\\stuff\\MIUN\\quantitative_research\\video_compression\\videos\\BVI-HD\\BVI-HD_CDVL_videos\\ORIG\\Grass_1920x1080_60fps.mp4",
  "output": "C:\\Users\\Peter\\Desktop\\stuff\\MIUN\\quantitative_research\\video_compression\\compressed_videos\\BVI-HD\\h264\\1.5\\Grass_1920x1080_60fps_h264.mp4",
  "codec": "h264",
  "ok": "Input #0, mov,mp4,m4a,3gp,3g2,mj2, from 'C:\\Users\\Peter\\Desktop\\stuff\\MIUN\\quantitative_research\\video_compression\\videos\\BVI-HD\\BVI-HD_CDVL_videos\\ORIG\\Grass_1920x1080_60fps.mp4':\n  Metadata:\n    major_brand     : isom\n    minor_version   : 512\n    compatible_brands: isomiso2avc1mp41\n    encoder         : Lavf54.28.101\n  Duration: 00:00:05.00, start: 0.000000, bitrate: 655968 kb/s\n  Stream #0:0[0x1](und): Video: h264 (High 4:4:4 Predictive) (avc1 / 0x31637661), yuv420p(progressive), 1920x1080, 655963 kb/s, 60 fps, 60 tbr, 60 tbn (default)\n    Metadata:\n      handler_name    : VideoHandler\n      vendor_id       : [0][0][0][0]\n[out#0/mp4 @ 000001e13f9d9b40] Codec AVOption b:a (set bitrate (in bits/s)) has not been used for any stream. The most likely reason is either wrong type (e.g. a video option with no video streams) or that it is a private option of some decoder which was not actually used for any stream.\nStream mapping:\n  Stream #0:0 -> #0:0 (h264 (native) -> h264 (libx264))\nPress [q] to stop, [?] for help\n[libx264 @ 000001e1405f0300] using cpu capabilities: MMX2 SSE2Fast SSSE3 SSE4.2 AVX FMA3 BMI2 AVX2\n[libx264 @ 000001e1405f0300] profile High, level 5.0, 4:2:0, 8-bit\n[libx264 @ 000001e1405f0300] 264 - core 165 r3222 b35605a - H.264/MPEG-4 AVC codec - Copyleft 2003-2025 - http://www.videolan.org/x264.html - options: cabac=1 ref=5 deblock=1:0:0 analyse=0x3:0x113 me=hex subme=8 psy=1 psy_rd=1.00:0.00 mixed_ref=1 me_range=16 chroma_me=1 trellis=2 8x8dct=1 cqm=0 deadzone=21,11 fast_pskip=1 chroma_qp_offset=-2 threads=18 lookahead_threads=3 sliced_threads=0 nr=0 decimate=1 interlaced=0 bluray_compat=0 constrained_intra=0 bframes=3 b_pyramid=2 b_adapt=1 b_bias=0 direct=3 weightb=1 open_gop=0 weightp=2 keyint=250 keyint_min=25 scenecut=40 intra_refresh=0 rc_lookahead=50 rc=cbr mbtree=1 bitrate=1500 ratetol=1.0 qcomp=0.60 qpmin=0 qpmax=69 qpstep=4 vbv_maxrate=1500 vbv_bufsize=1500 nal_hrd=none filler=0 ip_ratio=1.40 aq=1:1.00\nOutput #0, mp4, to 'C:\\Users\\Peter\\Desktop\\stuff\\MIUN\\quantitative_research\\video_compression\\compressed_videos\\BVI-HD\\h264\\1.5\\Grass_1920x1080_60fps_h264.mp4':\n  Metadata:\n    major_brand     : isom\n    minor_version   : 512\n    compatible_brands: isomiso2avc1mp41\n    encoder         : Lavf62.3.100\n  Stream #0:0(und): Video: h264 (avc1 / 0x31637661), yuv420p(tv, progressive), 1920x1080, q=2-31, 1500 kb/s, 60 fps, 15360 tbn (default)\n    Metadata:\n      encoder         : Lavc62.11.100 libx264\n      handler_name    : VideoHandler\n      vendor_id       : [0][0][0][0]\n    Side data:\n      cpb: bitrate max/min/avg: 1500000/0/1500000 buffer size: 1500000 vbv_delay: N/A\nframe=    0 fps=0.0 q=0.0 size=       0KiB time=N/A bitrate=N/A speed=N/A elapsed=0:00:00.51    \nframe=    0 fps=0.0 q=0.0 size=       0KiB time=N/A bitrate=N/A speed=N/A elapsed=0:00:01.08    \nframe=    0 fps=0.0 q=0.0 size=       0KiB time=N/A bitrate=N/A speed=N/A elapsed=0:00:01.73    \nframe=   12 fps=5.1 q=51.0 size=       0KiB time=00:00:00.10 bitrate=   3.8kbits/s speed=0.0422x elapsed=0:00:02.37    \nframe=   48 fps= 16 q=47.0 size=       0KiB time=00:00:00.70 bitrate=   0.5kbits/s speed=0.236x elapsed=0:00:02.97    \nframe=   78 fps= 22 q=46.0 size=       0KiB time=00:00:01.23 bitrate=   0.3kbits/s speed=0.342x elapsed=0:00:03.60    \nframe=   96 fps= 23 q=46.0 size=       0KiB time=00:00:01.51 bitrate=   0.3kbits/s speed=0.36x elapsed=0:00:04.21    \nframe=  113 fps= 23 q=46.0 size=       0KiB time=00:00:01.85 bitrate=   0.2kbits/s speed=0.384x elapsed=0:00:04.81    \nframe=  140 fps= 26 q=45.0 size=     256KiB time=00:00:02.21 bitrate= 946.3kbits/s speed=0.411x elapsed=0:00:05.39    \nframe=  166 fps= 28 q=45.0 size=     256KiB time=00:00:02.68 bitrate= 781.7kbits/s speed=0.448x elapsed=0:00:05.99    \nframe=  192 fps= 29 q=46.0 size=     256KiB time=00:00:03.11 bitrate= 673.0kbits/s speed=0.472x elapsed=0:00:06.59    \nframe=  210 fps= 29 q=46.0 size=     256KiB time=00:00:03.41 bitrate= 613.9kbits/s speed=0.475x elapsed=0:00:07.19    \nframe=  233 fps= 30 q=46.0 size=     256KiB time=00:00:03.85 bitrate= 544.8kbits/s speed=0.492x elapsed=0:00:07.82    \nframe=  268 fps= 32 q=46.0 size=     512KiB time=00:00:04.35 bitrate= 964.3kbits/s speed=0.52x elapsed=0:00:08.37    \n[mp4 @ 000001e13fa67ac0] Starting second pass: moving the moov atom to the beginning of the file\n[out#0/mp4 @ 000001e13f9d9b40] video:682KiB audio:0KiB subtitle:0KiB other streams:0KiB global headers:0KiB muxing overhead: 0.637803%\nframe=  300 fps= 35 q=-1.0 Lsize=     686KiB time=00:00:04.96 bitrate=1132.3kbits/s speed=0.573x elapsed=0:00:08.66    \n[libx264 @ 000001e1405f0300] frame I:2     Avg QP:43.08  size: 80004\n[libx264 @ 000001e1405f0300] frame P:76    Avg QP:44.03  size:  5238\n[libx264 @ 000001e1405f0300] frame B:222   Avg QP:48.64  size:   629\n[libx264 @ 000001e1405f0300] consecutive B-frames:  1.3%  0.0%  0.0% 98.7%\n[libx264 @ 000001e1405f0300] mb I  I16..4: 10.3% 80.9%  8.8%\n[libx264 @ 000001e1405f0300] mb P  I16..4:  0.0%  0.1%  0.0%  P16..4: 13.0%  1.5% 12.0%  0.0%  0.0%    skip:73.4%\n[libx264 @ 000001e1405f0300] mb B  I16..4:  0.0%  0.0%  0.0%  B16..8: 11.2%  0.0%  0.0%  direct: 0.0%  skip:88.8%  L0: 5.5% L1:94.5% BI: 0.0%\n[libx264 @ 000001e1405f0300] 8x8 transform intra:81.0% inter:85.9%\n[libx264 @ 000001e1405f0300] direct mvs  spatial:95.5% temporal:4.5%\n[libx264 @ 000001e1405f0300] coded y,uvDC,uvAC intra: 72.5% 88.8% 56.8% inter: 0.9% 1.8% 0.1%\n[libx264 @ 000001e1405f0300] i16 v,h,dc,p: 34% 20% 12% 33%\n[libx264 @ 000001e1405f0300] i8 v,h,dc,ddl,ddr,vr,hd,vl,hu:  4%  2%  2% 15% 21% 17% 16% 12% 11%\n[libx264 @ 000001e1405f0300] i4 v,h,dc,ddl,ddr,vr,hd,vl,hu:  4%  2%  0% 16% 21% 17% 16% 10% 14%\n[libx264 @ 000001e1405f0300] i8c dc,h,v,p: 58% 15% 14% 13%\n[libx264 @ 000001e1405f0300] Weighted P-Frames: Y:0.0% UV:0.0%\n[libx264 @ 000001e1405f0300] ref P L0: 89.3%  0.9%  5.2%  2.0%  2.6%\n[libx264 @ 000001e1405f0300] ref B L0: 94.8%  3.8%  0.8%  0.5%\n[libx264 @ 000001e1405f0300] ref B L1: 95.9%  4.1%\n[libx264 @ 000001e1405f0300] kb/s:1116.37\n",
  "seconds": 9.141098022460938,
  "probe_out": {}
}